<svg width="53" height="48" viewBox="0 0 53 48" fill="none" xmlns="http://www.w3.org/2000/svg">
<g clip-path="url(#clip0_10_67)">
<path d="M26.4997 30C30.1586 30 33.1247 27.3137 33.1247 24C33.1247 20.6863 30.1586 18 26.4997 18C22.8408 18 19.8747 20.6863 19.8747 24C19.8747 27.3137 22.8408 30 26.4997 30Z" stroke="#E37616" stroke-opacity="0.79" stroke-width="4" stroke-linecap="round" stroke-linejoin="round"/>
<path d="M42.8413 30C42.5474 30.6032 42.4597 31.2724 42.5896 31.9212C42.7195 32.57 43.061 33.1686 43.5701 33.64L43.7026 33.76C44.1132 34.1315 44.439 34.5726 44.6613 35.0582C44.8835 35.5438 44.9979 36.0643 44.9979 36.59C44.9979 37.1157 44.8835 37.6362 44.6613 38.1218C44.439 38.6074 44.1132 39.0485 43.7026 39.42C43.2924 39.7919 42.8053 40.0869 42.2691 40.2882C41.7329 40.4895 41.1582 40.5931 40.5778 40.5931C39.9974 40.5931 39.4227 40.4895 38.8865 40.2882C38.3503 40.0869 37.8632 39.7919 37.453 39.42L37.3205 39.3C36.8 38.8389 36.139 38.5296 35.4226 38.412C34.7063 38.2944 33.9674 38.3738 33.3013 38.64C32.6482 38.8935 32.0911 39.3145 31.6988 39.8511C31.3064 40.3877 31.0958 41.0164 31.093 41.66V42C31.093 43.0609 30.6277 44.0783 29.7994 44.8284C28.9711 45.5786 27.8477 46 26.6763 46C25.505 46 24.3816 45.5786 23.5533 44.8284C22.725 44.0783 22.2597 43.0609 22.2597 42V41.82C22.2426 41.158 22.006 40.516 21.5806 39.9774C21.1553 39.4388 20.5609 39.0286 19.8747 38.8C19.2086 38.5338 18.4697 38.4544 17.7534 38.572C17.037 38.6896 16.376 38.9989 15.8555 39.46L15.723 39.58C15.3128 39.9519 14.8257 40.2469 14.2895 40.4482C13.7534 40.6495 13.1786 40.7531 12.5982 40.7531C12.0178 40.7531 11.4431 40.6495 10.9069 40.4482C10.3707 40.2469 9.88361 39.9519 9.47342 39.58C9.06278 39.2085 8.73701 38.7674 8.51474 38.2818C8.29248 37.7962 8.17807 37.2757 8.17807 36.75C8.17807 36.2243 8.29248 35.7038 8.51474 35.2182C8.73701 34.7326 9.06278 34.2915 9.47342 33.92L9.60592 33.8C10.115 33.3286 10.4565 32.73 10.5864 32.0812C10.7163 31.4324 10.6286 30.7632 10.3347 30.16C10.0547 29.5685 9.58993 29.064 8.99745 28.7086C8.40498 28.3533 7.7107 28.1626 7.00009 28.16H6.62467C5.4533 28.16 4.32991 27.7386 3.50162 26.9884C2.67333 26.2383 2.20801 25.2209 2.20801 24.16C2.20801 23.0991 2.67333 22.0817 3.50162 21.3316C4.32991 20.5814 5.4533 20.16 6.62467 20.16H6.82342C7.55437 20.1445 8.26327 19.9302 8.85796 19.545C9.45265 19.1598 9.90563 18.6215 10.158 18C10.452 17.3968 10.5397 16.7276 10.4098 16.0788C10.2799 15.43 9.93836 14.8314 9.42926 14.36L9.29676 14.24C8.88611 13.8685 8.56034 13.4274 8.33808 12.9418C8.11581 12.4562 8.00141 11.9357 8.00141 11.41C8.00141 10.8843 8.11581 10.3638 8.33808 9.87824C8.56034 9.39265 8.88611 8.95149 9.29676 8.58C9.70695 8.20809 10.1941 7.91306 10.7302 7.71176C11.2664 7.51046 11.8411 7.40685 12.4215 7.40685C13.002 7.40685 13.5767 7.51046 14.1129 7.71176C14.649 7.91306 15.1362 8.20809 15.5463 8.58L15.6788 8.7C16.1993 9.16107 16.8603 9.47037 17.5767 9.58801C18.2931 9.70565 19.0319 9.62623 19.698 9.36H19.8747C20.5278 9.10647 21.0849 8.68551 21.4772 8.14893C21.8696 7.61235 22.0802 6.98357 22.083 6.34V6C22.083 4.93913 22.5483 3.92172 23.3766 3.17157C24.2049 2.42143 25.3283 2 26.4997 2C27.671 2 28.7944 2.42143 29.6227 3.17157C30.451 3.92172 30.9163 4.93913 30.9163 6V6.18C30.9192 6.82357 31.1297 7.45235 31.5221 7.98893C31.9145 8.52551 32.4715 8.94647 33.1247 9.2C33.7907 9.46623 34.5296 9.54565 35.246 9.42801C35.9623 9.31037 36.6234 9.00107 37.1438 8.54L37.2763 8.42C37.6865 8.04809 38.1736 7.75306 38.7098 7.55176C39.246 7.35046 39.8207 7.24685 40.4011 7.24685C40.9815 7.24685 41.5563 7.35046 42.0925 7.55176C42.6286 7.75306 43.1157 8.04809 43.5259 8.42C43.9366 8.79149 44.2623 9.23265 44.4846 9.71824C44.7069 10.2038 44.8213 10.7243 44.8213 11.25C44.8213 11.7757 44.7069 12.2962 44.4846 12.7818C44.2623 13.2674 43.9366 13.7085 43.5259 14.08L43.3934 14.2C42.8843 14.6714 42.5428 15.27 42.4129 15.9188C42.283 16.5676 42.3707 17.2368 42.6647 17.84V18C42.9446 18.5915 43.4094 19.096 44.0019 19.4514C44.5944 19.8067 45.2886 19.9974 45.9993 20H46.3747C47.546 20 48.6694 20.4214 49.4977 21.1716C50.326 21.9217 50.7913 22.9391 50.7913 24C50.7913 25.0609 50.326 26.0783 49.4977 26.8284C48.6694 27.5786 47.546 28 46.3747 28H46.1759C45.4653 28.0026 44.771 28.1933 44.1786 28.5486C43.5861 28.904 43.1213 29.4085 42.8413 30Z" stroke="#E37616" stroke-opacity="0.79" stroke-width="4" stroke-linecap="round" stroke-linejoin="round"/>
</g>
<defs>
<clipPath id="clip0_10_67">
<rect width="53" height="48" fill="white"/>
</clipPath>
</defs>
</svg>
