<svg width="68" height="63" viewBox="0 0 68 63" fill="none" xmlns="http://www.w3.org/2000/svg">
<g clip-path="url(#clip0_13_38)">
<path d="M54.4668 10.1094C52.4968 11.7261 50.0766 13.4701 47.7251 13.9123C43.3597 14.7344 38.665 12.8423 35.0591 13.3483C34.8245 13.3822 34.5982 13.4217 34.3743 13.4569C33.7583 13.3097 33.1103 13.1868 32.4256 13.0902C31.9316 13.0211 31.4351 12.9925 30.94 12.9925C29.5208 12.9957 28.0993 13.2131 26.6932 13.4129C25.2858 13.6148 23.8963 13.8035 22.5849 13.8035C21.8941 13.8035 21.2273 13.7531 20.5877 13.6303C19.7192 13.4701 18.775 13.0661 17.8286 12.501C16.8797 11.94 15.9321 11.22 15.034 10.4847C14.6217 10.1423 14.154 9.88104 13.661 9.70656C13.167 9.53319 12.6469 9.45308 12.1387 9.45419C11.3308 9.45419 10.5525 9.64737 9.81923 9.9481C9.17243 10.2149 8.55406 10.5681 7.95467 10.9853C6.90386 11.7107 5.90644 12.6337 4.98246 13.6655C3.59882 15.2151 2.37748 17.0119 1.48418 18.7843C1.03766 19.6732 0.6715 20.5557 0.413313 21.4095C0.155125 22.2635 0 23.0866 0 23.879C0 24.2961 0.0425 24.7065 0.151672 25.106C0.260578 25.5089 0.437086 25.9038 0.703773 26.2605C0.785453 26.3703 0.871914 26.4582 0.985734 26.5372C1.00234 26.5503 1.57091 26.9697 2.18809 27.5161C2.49727 27.7915 2.81722 28.0979 3.08364 28.392C3.34781 28.6773 3.55393 28.9627 3.63096 29.1219C3.98026 29.8079 4.86997 31.4806 6.05107 33.3517C6.64328 34.2868 7.30907 35.2713 8.02334 36.2107C8.38472 36.6827 8.75912 37.147 9.14295 37.586C8.09692 38.7866 8.10289 40.5492 9.24707 41.7423C10.5218 43.0769 12.7204 43.1987 14.1586 42.0167L14.2581 41.9343C13.6386 43.0791 13.789 44.5058 14.7614 45.5221C16.035 46.8545 18.2348 46.9773 19.6742 45.7953L20.2393 45.3189C19.4669 46.4944 19.5699 48.0486 20.6065 49.1329C21.8835 50.463 24.0822 50.586 25.5215 49.4084L26.391 48.6773C25.5701 49.8628 25.6579 51.4508 26.7134 52.5549C27.9868 53.8874 30.1867 54.0113 31.626 52.8294L33.0333 51.71C33.1659 51.7691 33.2952 51.8229 33.4148 51.8745L34.3768 52.3947L34.3684 52.3882C34.8495 52.6537 35.347 52.8688 35.8647 53.0192C36.3812 53.1695 36.9179 53.2574 37.464 53.2574C38.0552 53.2574 38.6581 53.1521 39.2243 52.9193C39.7882 52.6889 40.3071 52.3311 40.7384 51.8789C41.2537 51.3409 41.5961 50.71 41.7702 50.0526C42.2831 50.2249 42.821 50.3115 43.354 50.3115C43.9949 50.3115 44.6359 50.1886 45.2339 49.9451C45.8311 49.7015 46.3844 49.336 46.8427 48.8564C47.4114 48.2638 47.7703 47.558 47.9254 46.827C48.2311 46.8841 48.5391 46.9158 48.8471 46.9158C49.4915 46.9158 50.1323 46.7951 50.7293 46.5494C51.3277 46.3067 51.8808 45.9403 52.3393 45.4616C52.9623 44.812 53.3309 44.0272 53.4564 43.2238C53.5914 43.2347 53.7252 43.2392 53.8567 43.2392C54.6267 43.2392 55.3826 43.0854 56.0838 42.8111C56.7803 42.5345 57.4307 42.1329 57.9531 41.5895C58.4388 41.0791 58.8061 40.4843 59.069 39.8433C59.3308 39.2002 59.4837 38.5142 59.4861 37.8107C59.4861 37.5539 59.4623 37.2949 59.415 37.0381C62.0957 34.2745 63.5149 29.6715 64.1299 28.4642C64.8383 27.0681 67.5143 25.0859 67.5143 25.0859C70.4001 21.2273 59.7052 5.80831 54.4668 10.1094ZM56.4652 38.9327C56.3136 39.3079 56.0908 39.6526 55.8718 39.8786C55.6716 40.0905 55.3588 40.2958 54.9939 40.4406C54.6303 40.5833 54.2192 40.6612 53.8567 40.6612C53.6187 40.6612 53.3994 40.6271 53.2217 40.5724C53.2111 40.5679 53.2003 40.5647 53.1921 40.5613L49.2212 37.0119C48.6668 36.5181 47.7866 36.5335 47.2535 37.0449C46.7193 37.5575 46.7347 38.374 47.2878 38.8679L50.4899 41.7315C50.5029 41.7599 50.5111 41.7875 50.5265 41.816C50.658 42.0585 50.7268 42.3307 50.7268 42.6007C50.7268 43.0155 50.5751 43.4172 50.254 43.7509C50.0681 43.9485 49.8477 44.0913 49.6072 44.19C49.3691 44.2886 49.1085 44.3392 48.8467 44.3392C48.4013 44.337 47.9678 44.1965 47.6052 43.9002L47.5247 43.8321C47.5069 43.8167 47.4975 43.7992 47.4809 43.7817L44.0004 40.4166C43.4686 39.9009 42.5871 39.8832 42.035 40.3749C41.4795 40.8666 41.4593 41.6853 41.9888 42.1991L44.942 45.0548C44.948 45.0647 44.9527 45.0767 44.9586 45.0855C45.1399 45.3599 45.2312 45.676 45.2312 45.9931C45.23 46.4091 45.0783 46.812 44.7584 47.1466H44.7595C44.5712 47.3419 44.3509 47.4847 44.1127 47.5857C43.8736 47.6823 43.6128 47.7305 43.3533 47.7305C42.9056 47.7305 42.4685 47.59 42.1071 47.2949L42.0539 47.2543L40.9781 46.453L39.2142 44.7191C38.6871 44.202 37.8046 44.1779 37.2466 44.6664C36.6873 45.1537 36.6613 45.9724 37.1884 46.4894L38.8624 48.1346C39.0341 48.4047 39.1266 48.7097 39.1266 49.0192C39.123 49.4319 38.9725 49.8357 38.6551 50.1672C38.4632 50.368 38.2819 50.4844 38.0936 50.5624C37.9052 50.6382 37.7049 50.6787 37.4634 50.6798C37.2394 50.6798 36.9847 50.6435 36.7005 50.5601C36.4161 50.4767 36.1093 50.3472 35.7918 50.1738L35.7835 50.1672L35.2908 49.9038C36.6519 48.714 36.7584 46.7309 35.5086 45.4236C34.2505 44.111 32.0922 43.9771 30.6553 45.1076L30.9146 44.8903C32.3551 43.7106 32.4866 41.6724 31.2108 40.3401C29.9385 39.0076 27.7375 38.8848 26.2994 40.0657L25.4463 40.778C26.2708 39.596 26.1832 38.0046 25.1265 36.9004C23.8506 35.5681 21.6532 35.444 20.2138 36.626L19.0814 37.5809C19.6122 36.4658 19.4367 35.1148 18.5045 34.1423C17.2298 32.8089 15.03 32.687 13.593 33.8668L11.1966 35.8358C10.8945 35.4856 10.5923 35.1113 10.2963 34.7228C9.31547 33.4322 8.39375 31.9922 7.66288 30.7586C6.93308 29.525 6.38695 28.4934 6.14882 28.0226C6.02318 27.7756 5.87403 27.5496 5.7128 27.3323C5.43084 26.9569 5.10744 26.6035 4.77806 26.2786C4.28772 25.7879 3.77599 25.3555 3.38499 25.0405C3.19786 24.8891 3.03902 24.7628 2.92068 24.674C2.89584 24.6223 2.8722 24.5599 2.85082 24.4808C2.81058 24.3294 2.78202 24.1264 2.78202 23.8795C2.78202 23.4712 2.85905 22.9532 3.01657 22.3692C3.29256 21.3507 3.8173 20.1467 4.50686 18.9471C5.54094 17.1407 6.95433 15.3298 8.39481 14.0302C9.11506 13.3772 9.83769 12.8558 10.494 12.5167C10.8209 12.3489 11.1302 12.2237 11.4061 12.1468C11.6821 12.0678 11.9274 12.0328 12.1381 12.0328C12.3407 12.0339 12.5113 12.0623 12.6783 12.1183C12.8418 12.1798 13.0077 12.2654 13.1878 12.4135C14.1413 13.1983 15.1874 13.9961 16.3258 14.6722C17.4606 15.3451 18.6903 15.9048 20.0324 16.1594C20.8937 16.3218 21.7466 16.381 22.5842 16.381C24.1727 16.3799 25.7021 16.1638 27.1178 15.9618C27.4743 15.9091 27.8225 15.8607 28.1638 15.8125C27.1012 16.4907 26.0728 17.2952 24.9795 18.2402C21.8592 20.9368 19.1688 24.2305 17.6763 25.7275C16.1848 27.2224 18.9593 29.817 23.3755 28.6272C27.7894 27.4397 29.692 24.3885 29.692 24.3885L35.2349 22.5458L40.7363 23.7125L54.0337 34.8041L56.3319 36.863L56.3769 36.8982C56.4692 36.9772 56.5403 37.0694 56.6019 37.2186C56.6611 37.3679 56.7015 37.5698 56.7015 37.8113C56.7034 38.1501 56.6205 38.5572 56.4652 38.9327Z" fill="#E87F2E"/>
</g>
<defs>
<clipPath id="clip0_13_38">
<rect width="68" height="63" fill="white"/>
</clipPath>
</defs>
</svg>
