<svg width="54" height="54" viewBox="0 0 54 54" fill="none" xmlns="http://www.w3.org/2000/svg">
<path d="M25.3125 37.9688C31.6034 37.9688 36.7031 32.869 36.7031 26.5781C36.7031 20.2873 31.6034 15.1875 25.3125 15.1875C19.0216 15.1875 13.9219 20.2873 13.9219 26.5781C13.9219 32.869 19.0216 37.9688 25.3125 37.9688Z" fill="#E87F2E"/>
<path d="M25.3125 38.3906C18.7988 38.3906 13.5 33.0919 13.5 26.5781C13.5 20.0644 18.7988 14.7656 25.3125 14.7656C31.8263 14.7656 37.125 20.0644 37.125 26.5781C37.125 33.0919 31.8263 38.3906 25.3125 38.3906ZM25.3125 15.6094C19.2645 15.6094 14.3438 20.5301 14.3438 26.5781C14.3438 32.6261 19.2645 37.5469 25.3125 37.5469C31.3605 37.5469 36.2812 32.6261 36.2812 26.5781C36.2812 20.5301 31.3605 15.6094 25.3125 15.6094Z" fill="#E39535"/>
<path d="M25.3135 28.6875C28.1094 28.6875 30.376 26.4209 30.376 23.625C30.376 20.8291 28.1094 18.5625 25.3135 18.5625C22.5175 18.5625 20.251 20.8291 20.251 23.625C20.251 26.4209 22.5175 28.6875 25.3135 28.6875Z" fill="#4A4343"/>
<path d="M28.8235 20.698L29.2006 20.3842C28.5344 19.5857 27.6384 19.0117 26.6346 18.7404C25.6307 18.469 24.5676 18.5133 23.5898 18.8674C22.612 19.2215 21.767 19.8681 21.1696 20.7193C20.5722 21.5705 20.2515 22.5851 20.251 23.625H20.7285C23.6859 23.625 26.5504 22.5897 28.8235 20.698Z" fill="#FFD740"/>
<path d="M25.3131 28.6875C24.3867 28.6875 23.521 28.4344 22.7734 27.9998L22.7743 29.5355L25.3089 32.4574L27.8368 29.527L27.8359 28.01C27.0926 28.4386 26.2328 28.6875 25.3131 28.6875Z" fill="white"/>
<path d="M25.3089 32.8793C25.2485 32.8792 25.1887 32.8662 25.1337 32.8412C25.0787 32.8162 25.0297 32.7797 24.99 32.7341L22.4553 29.8122C22.3889 29.7357 22.3523 29.6377 22.3524 29.5363L22.3516 28.0007C22.3516 27.8497 22.4326 27.7096 22.5625 27.6345C22.6269 27.5977 22.6998 27.5784 22.774 27.5786C22.8481 27.5787 22.921 27.5983 22.9852 27.6353C23.6912 28.0398 24.4903 28.2534 25.3039 28.255C26.1175 28.2566 26.9175 28.0463 27.625 27.6446C27.6892 27.6081 27.7619 27.5891 27.8357 27.5893C27.9096 27.5896 27.9821 27.6091 28.046 27.6461C28.11 27.683 28.1632 27.736 28.2003 27.7998C28.2375 27.8637 28.2573 27.9361 28.2578 28.01L28.2587 29.527C28.2587 29.6283 28.2224 29.7262 28.1557 29.8029L25.6278 32.7333C25.5883 32.7791 25.5393 32.8158 25.4843 32.841C25.4292 32.8662 25.3694 32.8792 25.3089 32.8793ZM23.1962 29.3777L25.3081 31.8119L27.4149 29.3701V28.6875C26.063 29.2432 24.546 29.2405 23.1962 28.6799V29.3777Z" fill="#E39535"/>
<path d="M30.0307 30.2552L27.8395 29.527L25.3159 32.4565L22.7779 29.5346L20.6002 30.256C19.6639 30.5699 18.8679 31.2031 18.3516 32.0448C19.1782 33.1021 20.2348 33.9572 21.4412 34.5453C22.6476 35.1334 23.9721 35.4389 25.3142 35.4387C26.6563 35.4386 27.9807 35.1327 29.187 34.5444C30.3932 33.956 31.4496 33.1006 32.276 32.0431C31.7604 31.2023 30.9657 30.5694 30.0307 30.2552Z" fill="white"/>
<path d="M25.3124 35.8594C22.4529 35.8594 19.7943 34.5642 18.0182 32.3063C17.9646 32.2383 17.9332 32.1554 17.9284 32.0689C17.9236 31.9824 17.9455 31.8965 17.9912 31.8229C18.5607 30.8984 19.436 30.2026 20.465 29.8561L22.6436 29.1347C22.7226 29.1088 22.8075 29.1067 22.8878 29.1286C22.968 29.1505 23.0401 29.1954 23.095 29.2579L25.3141 31.8119L27.5196 29.252C27.5743 29.1886 27.6466 29.143 27.7272 29.1208C27.8079 29.0985 27.8933 29.1007 27.9727 29.1271L30.1639 29.8552C31.1919 30.2021 32.0662 30.8975 32.6353 31.8212C32.681 31.8948 32.7029 31.9807 32.6981 32.0672C32.6932 32.1537 32.6619 32.2366 32.6083 32.3047C31.7433 33.4138 30.6364 34.3107 29.3719 34.9268C28.1075 35.5428 26.7189 35.8618 25.3124 35.8594ZM18.8746 32.0212C19.6633 32.9608 20.6485 33.716 21.7609 34.2334C22.8732 34.7508 24.0856 35.0178 25.3124 35.0156C26.5396 35.0178 27.7523 34.7506 28.865 34.2329C29.9776 33.7152 30.9631 32.9596 31.7519 32.0195C31.29 31.3837 30.6419 30.9072 29.8973 30.656L27.9744 30.0172L25.6355 32.7324C25.5959 32.7782 25.5469 32.815 25.4919 32.8403C25.4369 32.8656 25.3771 32.8789 25.3166 32.8792C25.2562 32.8794 25.1957 32.8665 25.1408 32.8415C25.0859 32.8164 25.0371 32.7798 24.9977 32.7341L22.6428 30.0248L20.7317 30.6577C19.986 30.9082 19.337 31.3848 18.8746 32.0212Z" fill="#E39535"/>
<path d="M25.3125 35.8594C25.2006 35.8594 25.0933 35.8149 25.0142 35.7358C24.9351 35.6567 24.8906 35.5494 24.8906 35.4375V32.4574C24.8906 32.3455 24.9351 32.2382 25.0142 32.1591C25.0933 32.0799 25.2006 32.0355 25.3125 32.0355C25.4244 32.0355 25.5317 32.0799 25.6108 32.1591C25.6899 32.2382 25.7344 32.3455 25.7344 32.4574V35.4375C25.7344 35.5494 25.6899 35.6567 25.6108 35.7358C25.5317 35.8149 25.4244 35.8594 25.3125 35.8594ZM34.2613 38.3915C34.1494 38.3913 34.0421 38.347 33.9626 38.2683L31.7453 36.0509C31.7022 36.0079 31.6689 35.9562 31.6477 35.8991C31.6265 35.8421 31.6179 35.7812 31.6224 35.7205C31.627 35.6598 31.6447 35.6008 31.6742 35.5476C31.7036 35.4944 31.7443 35.4482 31.7933 35.4122C32.6711 34.7669 33.4482 33.9949 34.0993 33.1214C34.1355 33.0728 34.1817 33.0325 34.2348 33.0033C34.288 32.9741 34.3468 32.9568 34.4072 32.9524C34.4677 32.948 34.5283 32.9566 34.5851 32.9778C34.6419 32.999 34.6935 33.0321 34.7363 33.075L36.9461 35.2848C37.0252 35.3639 37.0696 35.4712 37.0696 35.583C37.0696 35.6949 37.0252 35.8022 36.9461 35.8813L34.5592 38.2683C34.4801 38.3471 34.373 38.3914 34.2613 38.3915ZM32.6827 35.7936L34.2622 37.3731L36.0526 35.5826L34.479 34.009C33.9456 34.6663 33.3434 35.2645 32.6827 35.7936Z" fill="#E39535"/>
<path d="M42.9122 47.2888C42.5882 47.2888 42.2642 47.1656 42.0169 46.9184L34.2612 39.1626C34.0245 38.9248 33.8916 38.603 33.8916 38.2674C33.8916 37.9319 34.0245 37.61 34.2612 37.3722L36.0516 35.5826C36.2891 35.3455 36.6109 35.2124 36.9464 35.2124C37.282 35.2124 37.6038 35.3455 37.8412 35.5826L45.597 43.3384C45.8358 43.5771 45.9674 43.8952 45.9674 44.2336C45.9674 44.5719 45.8358 44.89 45.597 45.1288L43.8074 46.9184C43.69 47.0362 43.5505 47.1296 43.3968 47.1932C43.2432 47.2567 43.0784 47.2892 42.9122 47.2888ZM36.9468 36.056C36.8914 36.0558 36.8364 36.0665 36.7852 36.0877C36.7339 36.1088 36.6874 36.1399 36.6482 36.1791L34.8577 37.9687C34.7788 38.0481 34.7345 38.1555 34.7345 38.2674C34.7345 38.3794 34.7788 38.4867 34.8577 38.5661L42.6135 46.3219C42.6527 46.3611 42.6992 46.3923 42.7505 46.4136C42.8017 46.4349 42.8567 46.4458 42.9122 46.4458C42.9676 46.4458 43.0226 46.4349 43.0738 46.4136C43.1251 46.3923 43.1717 46.3611 43.2108 46.3219L45.0004 44.5314C45.0796 44.4522 45.124 44.3447 45.124 44.2327C45.124 44.1207 45.0796 44.0133 45.0004 43.934L37.2447 36.1783C37.1653 36.1 37.0583 36.056 36.9468 36.056Z" fill="#E39535"/>
<path d="M42.1875 50.2031H9.28125C8.58347 50.2031 8.01562 49.6353 8.01562 48.9375V8.4375C8.01562 7.73972 8.58347 7.17188 9.28125 7.17188H41.3438C42.0415 7.17188 42.6094 7.73972 42.6094 8.4375V38.1392C42.6094 38.2511 42.5649 38.3584 42.4858 38.4375C42.4067 38.5166 42.2994 38.5611 42.1875 38.5611C42.0756 38.5611 41.9683 38.5166 41.8892 38.4375C41.8101 38.3584 41.7656 38.2511 41.7656 38.1392V8.4375C41.7656 8.32561 41.7212 8.21831 41.6421 8.13919C41.5629 8.06007 41.4556 8.01562 41.3438 8.01562H9.28125C9.16936 8.01562 9.06206 8.06007 8.98294 8.13919C8.90382 8.21831 8.85938 8.32561 8.85938 8.4375V48.9375C8.85938 49.0494 8.90382 49.1567 8.98294 49.2358C9.06206 49.3149 9.16936 49.3594 9.28125 49.3594H42.1875C42.2994 49.3594 42.4067 49.4038 42.4858 49.4829C42.5649 49.5621 42.6094 49.6694 42.6094 49.7812C42.6094 49.8931 42.5649 50.0004 42.4858 50.0796C42.4067 50.1587 42.2994 50.2031 42.1875 50.2031Z" fill="#E39535"/>
<path d="M37.9688 53.5781H5.90625C5.20847 53.5781 4.64062 53.0103 4.64062 52.3125V12.6562C4.64062 11.9585 5.20847 11.3906 5.90625 11.3906H6.75C6.86189 11.3906 6.96919 11.4351 7.04831 11.5142C7.12743 11.5933 7.17188 11.7006 7.17188 11.8125C7.17188 11.9244 7.12743 12.0317 7.04831 12.1108C6.96919 12.1899 6.86189 12.2344 6.75 12.2344H5.90625C5.79436 12.2344 5.68706 12.2788 5.60794 12.3579C5.52882 12.4371 5.48438 12.5444 5.48438 12.6562V52.3125C5.48438 52.4244 5.52882 52.5317 5.60794 52.6108C5.68706 52.6899 5.79436 52.7344 5.90625 52.7344H37.9688C38.0806 52.7344 38.1879 52.6899 38.2671 52.6108C38.3462 52.5317 38.3906 52.4244 38.3906 52.3125V51.4688C38.3906 51.3569 38.4351 51.2496 38.5142 51.1704C38.5933 51.0913 38.7006 51.0469 38.8125 51.0469C38.9244 51.0469 39.0317 51.0913 39.1108 51.1704C39.1899 51.2496 39.2344 51.3569 39.2344 51.4688V52.3125C39.2344 53.0103 38.6665 53.5781 37.9688 53.5781Z" fill="#E39535"/>
<path d="M27.4229 41.3446H14.7666C14.6547 41.3446 14.5474 41.3002 14.4683 41.221C14.3892 41.1419 14.3447 41.0346 14.3447 40.9227C14.3447 40.8108 14.3892 40.7035 14.4683 40.6244C14.5474 40.5453 14.6547 40.5009 14.7666 40.5009H27.4229C27.5347 40.5009 27.642 40.5453 27.7212 40.6244C27.8003 40.7035 27.8447 40.8108 27.8447 40.9227C27.8447 41.0346 27.8003 41.1419 27.7212 41.221C27.642 41.3002 27.5347 41.3446 27.4229 41.3446ZM27.4229 43.8759H14.7666C14.6547 43.8759 14.5474 43.8314 14.4683 43.7523C14.3892 43.6732 14.3447 43.5659 14.3447 43.454C14.3447 43.3421 14.3892 43.2348 14.4683 43.1557C14.5474 43.0766 14.6547 43.0321 14.7666 43.0321H27.4229C27.5347 43.0321 27.642 43.0766 27.7212 43.1557C27.8003 43.2348 27.8447 43.3421 27.8447 43.454C27.8447 43.5659 27.8003 43.6732 27.7212 43.7523C27.642 43.8314 27.5347 43.8759 27.4229 43.8759Z" fill="#E39535"/>
<path d="M21.0947 46.4071H14.7666C14.6547 46.4071 14.5474 46.3627 14.4683 46.2835C14.3892 46.2044 14.3447 46.0971 14.3447 45.9852C14.3447 45.8733 14.3892 45.766 14.4683 45.6869C14.5474 45.6078 14.6547 45.5634 14.7666 45.5634H21.0947C21.2066 45.5634 21.3139 45.6078 21.393 45.6869C21.4722 45.766 21.5166 45.8733 21.5166 45.9852C21.5166 46.0971 21.4722 46.2044 21.393 46.2835C21.3139 46.3627 21.2066 46.4071 21.0947 46.4071Z" fill="#E39535"/>
<path d="M48.9375 8.01562H45.5625C45.4506 8.01562 45.3433 7.97118 45.2642 7.89206C45.1851 7.81294 45.1406 7.70564 45.1406 7.59375C45.1406 7.48186 45.1851 7.37456 45.2642 7.29544C45.3433 7.21632 45.4506 7.17188 45.5625 7.17188H48.9375C49.0494 7.17188 49.1567 7.21632 49.2358 7.29544C49.3149 7.37456 49.3594 7.48186 49.3594 7.59375C49.3594 7.70564 49.3149 7.81294 49.2358 7.89206C49.1567 7.97118 49.0494 8.01562 48.9375 8.01562Z" fill="#E39535"/>
<path d="M43.875 2.95312H40.5C40.3881 2.95312 40.2808 2.90868 40.2017 2.82956C40.1226 2.75044 40.0781 2.64314 40.0781 2.53125C40.0781 2.41936 40.1226 2.31206 40.2017 2.23294C40.2808 2.15382 40.3881 2.10938 40.5 2.10938H43.875C43.9869 2.10938 44.0942 2.15382 44.1733 2.23294C44.2524 2.31206 44.2969 2.41936 44.2969 2.53125C44.2969 2.64314 44.2524 2.75044 44.1733 2.82956C44.0942 2.90868 43.9869 2.95312 43.875 2.95312Z" fill="#E39535"/>
<path d="M42.1875 4.64062C42.0756 4.64062 41.9683 4.59618 41.8892 4.51706C41.8101 4.43794 41.7656 4.33064 41.7656 4.21875V0.84375C41.7656 0.731862 41.8101 0.624556 41.8892 0.545439C41.9683 0.466322 42.0756 0.421875 42.1875 0.421875C42.2994 0.421875 42.4067 0.466322 42.4858 0.545439C42.5649 0.624556 42.6094 0.731862 42.6094 0.84375V4.21875C42.6094 4.33064 42.5649 4.43794 42.4858 4.51706C42.4067 4.59618 42.2994 4.64062 42.1875 4.64062Z" fill="#E39535"/>
<path d="M47.25 9.70312C47.1381 9.70312 47.0308 9.65868 46.9517 9.57956C46.8726 9.50044 46.8281 9.39314 46.8281 9.28125V5.90625C46.8281 5.79436 46.8726 5.68706 46.9517 5.60794C47.0308 5.52882 47.1381 5.48438 47.25 5.48438C47.3619 5.48438 47.4692 5.52882 47.5483 5.60794C47.6274 5.68706 47.6719 5.79436 47.6719 5.90625V9.28125C47.6719 9.39314 47.6274 9.50044 47.5483 9.57956C47.4692 9.65868 47.3619 9.70312 47.25 9.70312Z" fill="#E39535"/>
</svg>
