<svg width="99" height="109" viewBox="0 0 99 109" fill="none" xmlns="http://www.w3.org/2000/svg">
<rect x="19.1885" y="-4.12402" width="86" height="99.5185" rx="20" transform="rotate(13.5476 19.1885 -4.12402)" fill="#5E5A5A" fill-opacity="0.2"/>
<rect x="49.5947" y="11.7246" width="17.176" height="3.80975" transform="rotate(13.8275 49.5947 11.7246)" fill="#8A8A8A"/>
<rect x="38.5947" y="15.7246" width="34.2024" height="3.80975" transform="rotate(13.8275 38.5947 15.7246)" fill="#8A8A8A"/>
<rect x="20.5947" y="22.7246" width="21.6935" height="3.80975" transform="rotate(13.8275 20.5947 22.7246)" fill="#8A8A8A"/>
<rect x="15.6494" y="40.7246" width="21.6935" height="3.80975" transform="rotate(13.8275 15.6494 40.7246)" fill="#8A8A8A"/>
<rect x="10.7041" y="58.7246" width="21.6935" height="3.80975" transform="rotate(13.8275 10.7041 58.7246)" fill="#8A8A8A"/>
<rect x="18.5947" y="29.7246" width="71.451" height="2.20953" transform="rotate(13.8275 18.5947 29.7246)" fill="#8A8A8A"/>
<rect x="13.6494" y="47.7246" width="71.451" height="2.20953" transform="rotate(13.8275 13.6494 47.7246)" fill="#8A8A8A"/>
<rect x="8.7041" y="65.7246" width="71.451" height="2.20953" transform="rotate(13.8275 8.7041 65.7246)" fill="#8A8A8A"/>
<rect x="17.1416" y="33.9824" width="71.6562" height="2.20953" transform="rotate(13.3998 17.1416 33.9824)" fill="#8A8A8A"/>
<rect x="12.1963" y="51.9824" width="71.6562" height="2.20953" transform="rotate(13.3998 12.1963 51.9824)" fill="#8A8A8A"/>
<rect x="7.25098" y="69.9824" width="71.6562" height="2.20953" transform="rotate(13.3998 7.25098 69.9824)" fill="#8A8A8A"/>
</svg>
